<svg width="20" height="20" viewBox="0 0 20 20" fill="none" xmlns="http://www.w3.org/2000/svg">
<path d="M14.116 19.9916L14.1223 19.8579L10.4014 18.8941C11.3722 19.3542 12.6681 19.8987 14.116 19.9916ZM14.116 19.9916C14.2046 19.9958 14.2975 20 14.3819 20C15.3518 20 16.1672 19.6534 16.8072 18.9643C16.814 18.9569 16.8199 18.9487 16.827 18.9416M14.116 19.9916L14.1245 19.858C14.1248 19.8581 14.1251 19.8581 14.1254 19.8581C14.2228 19.8646 14.3193 19.8645 14.3774 19.8645L14.3819 19.8645H14.3861C15.3094 19.8645 16.0801 19.5431 16.7036 18.8764L16.7078 18.8719L16.72 18.8589L16.7308 18.8462L16.7355 18.8407C16.7365 18.8394 16.7376 18.8382 16.7387 18.8369C16.7387 18.8369 16.7387 18.8369 16.7387 18.8369C16.9643 18.5717 17.2108 18.3278 17.4782 18.0728L17.4782 18.0728L17.4796 18.0715L17.4803 18.0707L17.4867 18.0645C17.5155 18.0364 17.5451 18.0076 17.5753 17.9783C17.7172 17.8404 17.8724 17.6896 18.0226 17.5287C18.0227 17.5286 18.0228 17.5285 18.0229 17.5284C18.0254 17.5257 18.0279 17.523 18.0304 17.5203L18.0318 17.5188L18.0318 17.5188L18.0318 17.5188C18.0331 17.5174 18.0344 17.516 18.0357 17.5146L16.827 18.9416M16.827 18.9416C16.8305 18.938 16.8335 18.934 16.8365 18.93C16.8383 18.9275 16.8402 18.9251 16.8421 18.9227C17.0435 18.6802 17.2729 18.4583 17.5142 18.225L16.827 18.9416ZM17.5902 15.9519C17.6425 15.9754 17.6958 16.0022 17.7486 16.0315C17.7559 16.0765 17.7592 16.1204 17.7592 16.163C17.7592 16.3811 17.6717 16.6428 17.4146 16.9161L17.3156 16.8208C17.5913 16.5285 17.6832 16.2381 17.5902 15.9519ZM16.061 18.2982C15.6212 18.7646 15.0805 18.9991 14.3861 19C14.3847 19 14.3833 19 14.3819 19C14.3291 19 14.2655 18.9975 14.1834 18.9936L14.1919 18.8603C14.2553 18.8645 14.3228 18.8645 14.3861 18.8645C15.0446 18.8645 15.5469 18.6493 15.9733 18.1934L16.061 18.2982ZM14.1831 18.9936C14.1794 18.9935 14.1758 18.9933 14.172 18.9931C12.93 18.9118 11.7836 18.442 10.8406 17.9956C10.8404 17.9955 10.8402 17.9954 10.84 17.9953C10.8377 17.9943 10.8354 17.9932 10.8331 17.9921C8.42781 16.8288 6.31946 15.1786 4.5619 13.0827C4.56175 13.0825 4.56161 13.0824 4.56147 13.0822C4.55915 13.0794 4.55684 13.0767 4.55453 13.0739L14.1831 18.9936ZM10.8102 14.4378C10.9562 14.5125 11.1102 14.5612 11.2663 14.585L11.1654 14.7869L10.8102 14.4378ZM11.1998 13.6713L11.2625 13.5459C11.4554 13.6462 11.6929 13.6097 11.8469 13.4562L11.1998 13.6713ZM18.0199 17.5312L18.0207 17.5304C18.0143 17.537 18.0122 17.5391 18.0199 17.5312ZM16.0351 18.3319C16.0341 18.3332 16.0352 18.3318 16.0365 18.33L16.0351 18.3319Z" stroke="#000000" stroke-width="2"/>
<path d="M16.2037 9.01251L16.2036 9.012C16.2036 9.01217 16.2036 9.01234 16.2037 9.01251Z" stroke="#000000" stroke-width="2"/>
<mask id="path-3-inside-1" fill="white">
<path d="M19.9629 8.82242C19.5873 6.61899 18.5489 4.61395 16.9533 3.01836C15.3577 1.42277 13.3526 0.384369 11.1492 0.00868772C10.8411 -0.0461871 10.5498 0.16487 10.4949 0.473013C10.4443 0.785377 10.6511 1.07664 10.9635 1.13151C12.9305 1.46498 14.7245 2.39785 16.1513 3.82037C17.578 5.24712 18.5066 7.0411 18.8401 9.00815C18.8866 9.28675 19.1272 9.48092 19.4015 9.48092C19.4353 9.48092 19.4648 9.4767 19.4986 9.47248C19.8068 9.42604 20.0178 9.13056 19.9629 8.82242Z"/>
</mask>
<path d="M19.9629 8.82242L17.9914 9.15857L17.9926 9.16582L17.9939 9.17307L19.9629 8.82242ZM11.1492 0.00868772L10.7986 1.97771L10.8058 1.979L10.8131 1.98024L11.1492 0.00868772ZM10.4949 0.473013L8.52591 0.122365L8.5232 0.137598L8.52072 0.15287L10.4949 0.473013ZM10.9635 1.13151L10.6174 3.10138L10.6292 3.10338L10.9635 1.13151ZM16.1513 3.82037L17.5655 2.40616L17.5634 2.40407L16.1513 3.82037ZM18.8401 9.00815L20.8129 8.67935L20.812 8.67387L18.8401 9.00815ZM19.4986 9.47248L19.7467 11.457L19.7717 11.4539L19.7966 11.4502L19.4986 9.47248ZM21.9345 8.48628C21.4887 5.87139 20.2538 3.4905 18.3675 1.60414L15.5391 4.43257C16.8439 5.7374 17.6859 7.36659 17.9914 9.15857L21.9345 8.48628ZM18.3675 1.60414C16.4811 -0.282209 14.1002 -1.51703 11.4854 -1.96286L10.8131 1.98024C12.605 2.28577 14.2342 3.12775 15.5391 4.43257L18.3675 1.60414ZM11.4999 -1.96033C10.0633 -2.21616 8.76707 -1.23185 8.52591 0.122365L12.464 0.823661C12.3325 1.56159 11.6188 2.12378 10.7986 1.97771L11.4999 -1.96033ZM8.52072 0.15287C8.29485 1.54574 9.22753 2.85717 10.6174 3.10134L11.3095 -0.838324C12.0747 -0.703904 12.5937 0.0250179 12.4691 0.793155L8.52072 0.15287ZM10.6292 3.10338C12.181 3.36645 13.6003 4.10125 14.7391 5.23668L17.5634 2.40407C15.8487 0.69445 13.6801 -0.436486 11.2978 -0.840355L10.6292 3.10338ZM14.737 5.23459C15.8731 6.37067 16.6048 7.78832 16.8683 9.34244L20.812 8.67387C20.4085 6.29389 19.2829 4.12356 17.5655 2.40616L14.737 5.23459ZM16.8673 9.33695C17.0797 10.6112 18.1815 11.4809 19.4015 11.4809V7.48092C20.0728 7.48092 20.6934 7.9623 20.8129 8.67935L16.8673 9.33695ZM19.4015 11.4809C19.5033 11.4809 19.5885 11.4744 19.6491 11.4684C19.6782 11.4654 19.7027 11.4625 19.718 11.4606C19.7257 11.4597 19.7327 11.4588 19.7371 11.4582C19.7425 11.4576 19.7444 11.4573 19.7467 11.457L19.2505 7.48792C19.2444 7.48869 19.238 7.4895 19.2351 7.48987C19.2333 7.49009 19.2321 7.49024 19.2312 7.49036C19.2308 7.49042 19.2304 7.49046 19.2302 7.49048C19.2301 7.4905 19.23 7.49051 19.23 7.49051C19.2299 7.49052 19.2299 7.49052 19.2299 7.49052C19.2299 7.49052 19.2299 7.49052 19.23 7.49051C19.23 7.49051 19.2301 7.4905 19.2302 7.49048C19.2304 7.49046 19.2308 7.49042 19.2312 7.49036C19.2321 7.49026 19.2335 7.4901 19.2352 7.4899C19.2387 7.4895 19.2441 7.4889 19.2511 7.48821C19.28 7.48531 19.3335 7.48092 19.4015 7.48092V11.4809ZM19.7966 11.4502C21.2262 11.2347 22.1826 9.87946 21.932 8.47177L17.9939 9.17307C17.853 8.38167 18.3874 7.61735 19.2006 7.4948L19.7966 11.4502Z" fill="#000000" mask="url(#path-3-inside-1)"/>
<defs>
<linearGradient id="paint0_linear" x1="0" y1="10.5784" x2="16.9293" y2="5.01253" gradientUnits="userSpaceOnUse">
<stop stop-color="#97CC35"/>
<stop offset="1" stop-color="#66B161"/>
</linearGradient>
<linearGradient id="paint1_linear" x1="10.3252" y1="6.64056" x2="15.7599" y2="4.84564" gradientUnits="userSpaceOnUse">
<stop stop-color="#97CC35"/>
<stop offset="1" stop-color="#66B161"/>
</linearGradient>
<linearGradient id="paint2_linear" x1="10.4873" y1="4.74046" x2="19.0384" y2="1.9155" gradientUnits="userSpaceOnUse">
<stop stop-color="#97CC35"/>
<stop offset="1" stop-color="#66B161"/>
</linearGradient>
</defs>
</svg>
