<svg width="96" height="45" viewBox="0 0 96 45" fill="none" xmlns="http://www.w3.org/2000/svg">
<path d="M0 0.332031H9.889C11.3251 0.332031 12.5612 0.627144 13.5974 1.21737C14.6335 1.80759 15.4152 2.60071 15.9424 3.61516C16.4695 4.6296 16.7422 5.75472 16.7422 6.9905C16.7422 8.20784 16.4695 9.31451 15.9424 10.329C15.4152 11.325 14.6335 12.1181 13.5974 12.7083C12.5612 13.2801 11.3251 13.5752 9.889 13.5752H5.08993V20.3628H0V0.332031ZM10.907 5.14605C10.4707 4.68494 9.889 4.44516 9.19822 4.44516H5.08993V9.46207H9.19822C9.889 9.46207 10.4525 9.24073 10.907 8.77962C11.3433 8.31851 11.5796 7.72828 11.5796 6.9905C11.5614 6.21583 11.3433 5.60716 10.907 5.14605Z" fill="white"/>
<path d="M18.5788 4.99847C19.4877 3.43068 20.7602 2.1949 22.3599 1.328C23.9596 0.442668 25.7592 0 27.7589 0C29.7585 0 31.5399 0.442668 33.1396 1.328C34.7393 2.21334 35.9936 3.43068 36.9207 4.99847C37.8296 6.56625 38.3023 8.35537 38.3023 10.3658C38.3023 12.3763 37.8478 14.1469 36.9207 15.7332C36.0118 17.301 34.7393 18.5367 33.1396 19.4036C31.5399 20.289 29.7403 20.7316 27.7589 20.7316C25.7592 20.7316 23.9596 20.289 22.3599 19.4036C20.7602 18.5183 19.4877 17.301 18.5788 15.7332C17.6699 14.1654 17.1973 12.3763 17.1973 10.3658C17.2154 8.35537 17.6699 6.56625 18.5788 4.99847ZM32.467 7.17492C32.0308 6.23425 31.3945 5.47802 30.5947 4.92469C29.7767 4.37135 28.8496 4.09468 27.777 4.09468C26.7045 4.09468 25.7774 4.37135 24.9594 4.92469C24.1414 5.47802 23.5051 6.2158 23.0689 7.17492C22.6326 8.11559 22.3963 9.18537 22.3963 10.3474C22.3963 11.5094 22.6144 12.5607 23.0689 13.5198C23.5051 14.4605 24.1414 15.2167 24.9594 15.7701C25.7774 16.3234 26.7227 16.6001 27.777 16.6001C28.8496 16.6001 29.7767 16.3234 30.5947 15.7701C31.3945 15.2167 32.0308 14.4789 32.467 13.5198C32.9033 12.5792 33.1396 11.5094 33.1396 10.3474C33.1396 9.18537 32.9033 8.13403 32.467 7.17492Z" fill="white"/>
<path d="M55.0802 4.44516H44.755V7.50695H49.7358C51.1356 7.50695 52.3353 7.78362 53.3533 8.3554C54.3531 8.92718 55.1166 9.70185 55.6438 10.661C56.1709 11.6385 56.4254 12.7267 56.4254 13.9256C56.4254 15.1245 56.1709 16.2128 55.6438 17.1903C55.1166 18.1679 54.3531 18.9241 53.3533 19.4959C52.3535 20.0677 51.1356 20.3443 49.7358 20.3443H39.665V0.332031H55.0802V4.44516ZM44.7368 16.2312H49.0814C49.6995 16.2312 50.2085 16.0099 50.6084 15.5856C51.0083 15.143 51.2083 14.5896 51.2083 13.9256C51.2083 13.2616 51.0083 12.7083 50.6084 12.2656C50.2085 11.823 49.6995 11.6201 49.0814 11.6201H44.7368V16.2312Z" fill="white"/>
<path d="M73.1134 4.44516H62.7882V7.50695H67.7508C69.1506 7.50695 70.3503 7.78362 71.3683 8.3554C72.3681 8.92718 73.1316 9.70185 73.6588 10.661C74.186 11.6385 74.4405 12.7267 74.4405 13.9256C74.4405 15.1245 74.186 16.2128 73.6588 17.1903C73.1316 18.1679 72.3681 18.9241 71.3683 19.4959C70.3685 20.0677 69.1506 20.3443 67.7508 20.3443H57.6982V0.332031H73.1134V4.44516ZM62.7882 16.2312H67.1328C67.7509 16.2312 68.2598 16.0099 68.6598 15.5856C69.0597 15.143 69.2596 14.5896 69.2596 13.9256C69.2596 13.2616 69.0597 12.7083 68.6598 12.2656C68.2598 11.823 67.7509 11.6201 67.1328 11.6201H62.7882V16.2312Z" fill="white"/>
<path d="M76.2761 4.99847C77.185 3.43068 78.4575 2.1949 80.0572 1.328C81.6569 0.442668 83.4565 0 85.4561 0C87.4557 0 89.2372 0.442668 90.8369 1.328C92.4366 2.21334 93.6909 3.43068 94.618 4.99847C95.5269 6.56625 95.9996 8.35537 95.9996 10.3658C95.9996 12.3763 95.5451 14.1469 94.618 15.7332C93.7091 17.301 92.4366 18.5367 90.8369 19.4036C89.2372 20.289 87.4376 20.7316 85.4561 20.7316C83.4565 20.7316 81.6569 20.289 80.0572 19.4036C78.4575 18.5183 77.185 17.301 76.2761 15.7332C75.3672 14.1654 74.8945 12.3763 74.8945 10.3658C74.8945 8.35537 75.349 6.56625 76.2761 4.99847ZM90.1461 7.17492C89.7099 6.23425 89.0736 5.47802 88.2738 4.92469C87.4557 4.37135 86.5287 4.09468 85.4561 4.09468C84.3836 4.09468 83.4565 4.37135 82.6385 4.92469C81.8205 5.47802 81.1842 6.2158 80.7479 7.17492C80.3117 8.11559 80.0753 9.18537 80.0753 10.3474C80.0753 11.5094 80.2935 12.5607 80.7479 13.5198C81.1842 14.4605 81.8205 15.2167 82.6385 15.7701C83.4565 16.3234 84.4018 16.6001 85.4561 16.6001C86.5287 16.6001 87.4557 16.3234 88.2738 15.7701C89.0736 15.2167 89.7099 14.4789 90.1461 13.5198C90.5824 12.5792 90.8187 11.5094 90.8187 10.3474C90.8187 9.18537 90.6006 8.13403 90.1461 7.17492Z" fill="white"/>
<path d="M16.6328 36.7413L15.3057 38.4198V44.2851H10.2158V24.2544H15.3057V32.4806L21.3773 24.2544H27.6488L19.9776 33.6242L28.0669 44.2851H21.8136L16.6328 36.7413Z" fill="white"/>
<path d="M30.1575 39.7846C30.7029 39.2866 31.1937 38.2721 31.63 36.7412C32.0662 35.2103 32.3935 32.9785 32.6116 30.0643L33.0297 24.2358H47.7359V44.2666H42.646V28.3674H37.2652L37.0653 30.6361C36.7744 34.5094 36.2109 37.479 35.411 39.5079C34.593 41.5552 33.6296 42.9201 32.4662 43.6026C31.3028 44.285 29.9212 44.6355 28.2852 44.6355V40.5223C28.9759 40.5223 29.6122 40.2826 30.1575 39.7846Z" fill="white"/>
<path d="M68.387 24.2544L61.5156 39.5449C60.7521 41.2602 59.7886 42.5514 58.6434 43.3814C57.4982 44.2298 56.0439 44.6356 54.2624 44.6356C53.1717 44.6356 52.281 44.5249 51.572 44.2851L52.5719 40.2458C52.8991 40.4302 53.3353 40.5225 53.8807 40.5225C54.4442 40.5225 54.9169 40.4118 55.2804 40.1905C55.644 39.9691 55.9712 39.6371 56.2802 39.1945L48.3545 24.2544H54.1897L58.9524 33.6611L62.7699 24.2544H68.387Z" fill="white"/>
<path d="M84.4386 28.3675H74.1134V31.4293H79.076C80.4758 31.4293 81.6755 31.706 82.6935 32.2778C83.6933 32.8495 84.4568 33.6242 84.984 34.5833C85.5112 35.5609 85.7657 36.6491 85.7657 37.848C85.7657 39.0469 85.5112 40.1351 84.984 41.1127C84.4568 42.0902 83.6933 42.8465 82.6935 43.4182C81.6937 43.99 80.4758 44.2667 79.076 44.2667H69.0234V24.2544H84.4386V28.3675ZM74.1134 40.172H78.458C79.076 40.172 79.585 39.9507 79.985 39.5265C80.3849 39.0838 80.5848 38.5304 80.5848 37.8664C80.5848 37.2024 80.3849 36.6491 79.985 36.2064C79.585 35.7638 79.076 35.5609 78.458 35.5609H74.1134V40.172Z" fill="white"/>
<path d="M88.6735 28.3675V24.6971H87.3828V24.2544H90.455V24.6971H89.1825V28.3675H88.6735Z" fill="white"/>
<path d="M94.3637 28.3675V24.9737L92.9821 28.3675H92.764L91.4006 24.9737V28.3675H90.8916V24.2544H91.6187L92.873 27.3531L94.1273 24.2544H94.8545V28.3675H94.3637Z" fill="white"/>
</svg>
