<svg width="28" height="28" viewBox="0 0 28 28" fill="none" xmlns="http://www.w3.org/2000/svg">
<path d="M19.8843 17.1987C19.6335 16.9741 19.2482 16.996 19.0248 17.2462C17.7551 18.6651 15.9241 19.4783 14.0001 19.4783C12.0766 19.4783 10.245 18.6651 8.97526 17.2462C8.75066 16.996 8.36657 16.9741 8.11579 17.1987C7.865 17.4227 7.84431 17.8074 8.06831 18.0582C9.56874 19.7345 11.7308 20.6957 14.0001 20.6957C16.2699 20.6957 18.432 19.7339 19.9318 18.0582C20.1558 17.8074 20.1345 17.4227 19.8843 17.1987Z" fill="#599B19"/>
<path d="M14 0C6.28052 0 0 6.28052 0 14C0 21.7195 6.28052 28 14 28C21.7195 28 28 21.7195 28 14C28 6.28052 21.7195 0 14 0ZM14 26.7826C6.9513 26.7826 1.21739 21.0487 1.21739 14C1.21739 6.9513 6.9513 1.21739 14 1.21739C21.0487 1.21739 26.7826 6.9513 26.7826 14C26.7826 21.0487 21.0487 26.7826 14 26.7826Z" fill="#599B19"/>
<path d="M18.8697 9.73926C17.1915 9.73926 15.8262 11.1046 15.8262 12.7827C15.8262 13.1187 16.0989 13.3914 16.4349 13.3914C16.7709 13.3914 17.0436 13.1187 17.0436 12.7827C17.0436 11.776 17.8629 10.9566 18.8697 10.9566C19.8764 10.9566 20.6957 11.776 20.6957 12.7827C20.6957 13.1187 20.9684 13.3914 21.3044 13.3914C21.6404 13.3914 21.9131 13.1187 21.9131 12.7827C21.9131 11.1046 20.5478 9.73926 18.8697 9.73926Z" fill="#599B19"/>
<path d="M10.9565 12.7827C10.9565 13.1187 11.2292 13.3914 11.5652 13.3914C11.9012 13.3914 12.1739 13.1187 12.1739 12.7827C12.1739 11.1046 10.8086 9.73926 9.13039 9.73926C7.45222 9.73926 6.08691 11.1046 6.08691 12.7827C6.08691 13.1187 6.35961 13.3914 6.69561 13.3914C7.03161 13.3914 7.30431 13.1187 7.30431 12.7827C7.30431 11.776 8.12361 10.9566 9.13039 10.9566C10.1372 10.9566 10.9565 11.776 10.9565 12.7827Z" fill="#599B19"/>
</svg>
