<svg width="65" height="52" viewBox="0 0 65 52" fill="none" xmlns="http://www.w3.org/2000/svg">
<path d="M28.4377 2.70844C29.1856 2.70844 29.792 2.1021 29.792 1.35422C29.792 0.606332 29.1856 0 28.4377 0C12.7395 0.0179005 0.0179623 12.7394 6.1841e-05 28.4377V36.5627C-0.0234246 44.8135 6.64597 51.5211 14.8966 51.5446C23.1473 51.5681 29.8549 44.8987 29.8784 36.6481C29.9019 28.3973 23.2325 21.6897 14.9819 21.6662C10.1102 21.6524 5.53754 24.0147 2.73008 27.9963C2.98081 13.9719 14.411 2.72837 28.4377 2.70844Z" fill="#EFEFEF"/>
<path d="M50.1049 21.6669C45.2611 21.6707 40.7224 24.032 37.939 27.9963C38.1899 13.9718 49.62 2.72824 63.6467 2.70844C64.3946 2.70844 65.0009 2.1021 65.0009 1.35422C65.0009 0.606332 64.3946 0 63.6467 0C47.9484 0.0179005 35.2269 12.7394 35.209 28.4377V36.5627C35.209 44.7895 41.8781 51.4586 50.1049 51.4586C58.3316 51.4586 65.0008 44.7895 65.0008 36.5627C65.0008 28.336 58.3318 21.6669 50.1049 21.6669Z" fill="#EFEFEF"/>
</svg>
