<svg width="21" height="21" viewBox="0 0 21 21" fill="none" xmlns="http://www.w3.org/2000/svg">
<path d="M0.43934 0.43934L1.85355 1.85355L0.43934 0.43934ZM2.56066 0.43934L1.14645 1.85355L1.14645 1.85355L2.56066 0.43934ZM0.43934 2.56066L1.85355 1.14645L1.85355 1.14645L0.43934 2.56066ZM8.37868 10.5L9.79289 11.9142L11.2071 10.5L9.79289 9.08579L8.37868 10.5ZM0.56066 18.318L1.97487 19.7322L1.97487 19.7322L0.56066 18.318ZM0.56066 20.4393L1.97487 19.0251L1.97487 19.0251L0.56066 20.4393ZM2.68198 20.4393L4.09619 21.8536L4.09619 21.8536L2.68198 20.4393ZM10.5 12.6213L11.9142 11.2071L10.5 9.79289L9.08579 11.2071L10.5 12.6213ZM12.6213 10.5L11.2071 9.08579L9.79289 10.5L11.2071 11.9142L12.6213 10.5ZM20.3596 2.76167L18.9454 1.34746V1.34746L20.3596 2.76167ZM20.3596 0.64035L21.7739 -0.773864V-0.773864L20.3596 0.64035ZM18.2383 0.64035L16.8241 -0.773864V-0.773864L18.2383 0.64035ZM10.5 8.37868L9.08579 9.79289L10.5 11.2071L11.9142 9.79289L10.5 8.37868ZM1.85355 1.85355C1.65829 2.04882 1.34171 2.04882 1.14645 1.85355L3.97487 -0.974874C2.60804 -2.34171 0.391961 -2.34171 -0.974874 -0.974874L1.85355 1.85355ZM1.85355 1.14645C2.04882 1.34171 2.04881 1.65829 1.85355 1.85355L-0.974874 -0.974874C-2.34171 0.39196 -2.34171 2.60804 -0.974874 3.97487L1.85355 1.14645ZM9.79289 9.08579L1.85355 1.14645L-0.974874 3.97487L6.96447 11.9142L9.79289 9.08579ZM1.97487 19.7322L9.79289 11.9142L6.96447 9.08579L-0.853553 16.9038L1.97487 19.7322ZM1.97487 19.0251C2.17014 19.2204 2.17014 19.537 1.97487 19.7322L-0.853551 16.9038C-2.22039 18.2706 -2.22039 20.4867 -0.853551 21.8536L1.97487 19.0251ZM1.26777 19.0251C1.46303 18.8299 1.77961 18.8299 1.97487 19.0251L-0.853554 21.8536C0.513281 23.2204 2.72936 23.2204 4.09619 21.8536L1.26777 19.0251ZM9.08579 11.2071L1.26777 19.0251L4.09619 21.8536L11.9142 14.0355L9.08579 11.2071ZM19.5312 18.8241L11.9142 11.2071L9.08579 14.0355L16.7028 21.6525L19.5312 18.8241ZM18.8241 18.8241C19.0194 18.6289 19.336 18.6289 19.5312 18.8241L16.7028 21.6525C18.0696 23.0194 20.2857 23.0194 21.6525 21.6525L18.8241 18.8241ZM18.8241 19.5312C18.6289 19.336 18.6289 19.0194 18.8241 18.8241L21.6525 21.6525C23.0194 20.2857 23.0194 18.0696 21.6525 16.7028L18.8241 19.5312ZM11.2071 11.9142L18.8241 19.5312L21.6525 16.7028L14.0355 9.08579L11.2071 11.9142ZM18.9454 1.34746L11.2071 9.08579L14.0355 11.9142L21.7739 4.17588L18.9454 1.34746ZM18.9454 2.05456C18.7502 1.8593 18.7502 1.54272 18.9454 1.34746L21.7739 4.17588C23.1407 2.80905 23.1407 0.592971 21.7739 -0.773864L18.9454 2.05456ZM19.6525 2.05456C19.4573 2.24983 19.1407 2.24983 18.9454 2.05456L21.7739 -0.773864C20.407 -2.1407 18.191 -2.1407 16.8241 -0.773864L19.6525 2.05456ZM11.9142 9.79289L19.6525 2.05456L16.8241 -0.773864L9.08579 6.96447L11.9142 9.79289ZM1.14645 1.85355L9.08579 9.79289L11.9142 6.96447L3.97487 -0.974874L1.14645 1.85355Z" />
</svg>
