<svg width="102" height="120" viewBox="0 0 102 120" fill="none" xmlns="http://www.w3.org/2000/svg">
<path d="M101.543 105.132L83.165 73.3048C90.3518 65.502 94.6638 55.1326 94.6638 43.7365C94.6638 31.6217 89.7358 20.7389 81.8304 12.8335C73.9249 4.92805 63.0422 0 50.9274 0C38.8126 0 27.9298 4.92805 20.0244 12.8335C12.119 20.7389 7.1909 31.6217 7.1909 43.7365C7.1909 55.1326 11.5029 65.502 18.6897 73.3048L0.312163 105.132C0.00415977 105.645 -0.0985077 106.364 0.106828 107.082C0.517499 108.212 1.74951 108.725 2.87886 108.314L17.5603 102.462L19.819 118.171C19.9217 118.787 20.2297 119.403 20.8457 119.711C21.8724 120.327 23.2071 119.916 23.8231 118.889L42.4059 86.7542C45.0753 87.2676 47.95 87.5756 50.722 87.5756C53.5967 87.5756 56.3687 87.2676 59.0381 86.7542L77.621 118.889C78.237 119.916 79.5717 120.224 80.5983 119.711C81.2143 119.403 81.5223 118.787 81.625 118.171L83.8837 102.462L98.5652 108.314C99.6945 108.725 100.927 108.212 101.337 107.082C101.953 106.364 101.851 105.645 101.543 105.132ZM23.4124 111.292L21.5644 99.0744C21.3591 97.945 20.3324 97.1237 19.1004 97.2263C18.895 97.2263 18.6897 97.329 18.4844 97.4317L7.08823 101.949L21.8724 76.3848C26.4924 80.4915 32.0365 83.6742 38.1966 85.5222L23.4124 111.292ZM50.9274 83.1609C40.0446 83.1609 30.1885 78.7462 23.1044 71.6621C16.0203 64.578 11.6056 54.7219 11.6056 43.8391C11.6056 32.9563 16.0203 23.1002 23.1044 16.0162C30.1885 8.72676 40.0446 4.31204 50.9274 4.31204C61.8101 4.31204 71.6662 8.72676 78.7503 15.8108C85.8344 22.8949 90.2491 32.751 90.2491 43.6338C90.2491 54.5166 85.8344 64.3727 78.7503 71.4567C71.6662 78.7462 61.8101 83.1609 50.9274 83.1609ZM83.3704 97.4317C83.165 97.329 82.9597 97.2263 82.7544 97.2263C81.625 97.021 80.4957 97.8424 80.2903 99.0744L78.4423 111.292L63.6582 85.5222C69.8182 83.6742 75.3623 80.4915 79.9823 76.3848L94.7665 101.949L83.3704 97.4317Z" fill="white"/>
<path d="M71.0501 36.1388C70.5367 35.4202 69.9207 34.9068 69.202 34.5988C68.4834 34.2908 67.662 34.0855 66.8407 34.1881H58.3193L55.6499 25.7694C55.2392 24.5374 54.3152 23.5107 53.2886 22.8947C52.5699 22.5867 51.8512 22.3813 51.0299 22.3813C50.2085 22.3813 49.4898 22.5867 48.7712 22.8947C47.6418 23.5107 46.8205 24.4347 46.4098 25.7694L43.7405 34.1881H35.219C34.3977 34.0855 33.5764 34.2908 32.8577 34.5988C32.139 34.9068 31.523 35.4202 31.0097 36.1388C30.1883 37.2682 29.983 38.5002 30.1883 39.7322C30.3937 40.9642 31.0097 42.0936 32.139 42.9149L39.3257 48.0483L36.5537 56.467C36.5537 56.5697 36.5537 56.6724 36.451 56.6724C36.2457 57.2884 36.2457 58.0071 36.3484 58.7257C36.451 59.4444 36.7591 60.1631 37.2724 60.7791C38.0937 61.9084 39.2231 62.5244 40.4551 62.7298C41.6871 62.9351 43.0218 62.6271 44.0485 61.8058L51.2352 56.5697L58.4219 61.8058C59.5513 62.6271 60.7833 62.8324 62.0153 62.7298C63.2473 62.5244 64.3767 61.9084 65.198 60.7791C65.7113 60.1631 65.9167 59.4444 66.122 58.7257C66.2247 58.0071 66.2247 57.3911 66.0194 56.6724C66.0194 56.5697 66.0194 56.467 65.9167 56.467L63.1447 48.0483L70.3314 42.9149C71.4607 42.0936 72.0767 40.9642 72.2821 39.7322C72.1794 38.6029 71.8714 37.2682 71.0501 36.1388ZM67.4567 39.4242L67.354 39.5269L59.0379 45.5843C58.3193 46.0976 57.9086 47.1243 58.2166 47.9456L61.3993 57.6991V57.8017C61.3993 57.9044 61.3993 58.0071 61.3993 58.1097C61.3993 58.2124 61.3993 58.3151 61.2966 58.3151C61.194 58.4177 61.0913 58.5204 60.886 58.5204C60.7833 58.5204 60.578 58.5204 60.4753 58.4177L52.0565 52.2577C51.6459 51.9497 51.2352 51.847 50.7219 51.847C50.3112 51.847 49.7979 51.9497 49.3872 52.2577L40.9684 58.4177C40.8658 58.5204 40.6604 58.5204 40.5578 58.5204C40.4551 58.5204 40.2498 58.4177 40.1471 58.3151C40.0444 58.2124 40.0444 58.1097 40.0444 58.1097C40.0444 58.0071 40.0444 57.9044 40.0444 57.8017V57.6991L43.2271 47.9456C43.5351 47.0216 43.2271 46.0976 42.4058 45.5843L34.5004 39.5269L34.3977 39.4242C34.295 39.3215 34.1924 39.2189 34.1924 39.1162C34.1924 39.0135 34.1924 38.8082 34.295 38.7055C34.295 38.7055 34.295 38.6029 34.3977 38.6029C34.5004 38.5002 34.5004 38.5002 34.603 38.5002C34.7057 38.5002 34.8084 38.3975 34.911 38.3975C35.0137 38.3975 35.1164 38.3975 35.219 38.3975H45.2805C46.2045 38.3975 47.0258 37.7815 47.3338 36.8575L50.5165 27.0014C50.5165 26.8987 50.6192 26.6934 50.8245 26.6934C50.9272 26.6934 51.0299 26.5907 51.0299 26.5907C51.1325 26.5907 51.2352 26.5907 51.2352 26.6934C51.3379 26.7961 51.4405 26.8987 51.5432 27.0014L54.7259 36.8575C55.0339 37.6788 55.8552 38.3975 56.7793 38.3975H66.8407C66.9434 38.3975 67.046 38.3975 67.1487 38.3975C67.2514 38.3975 67.354 38.3975 67.4567 38.5002C67.5594 38.5002 67.5594 38.6029 67.662 38.6029C67.662 38.6029 67.662 38.7055 67.7647 38.7055C67.8674 38.8082 67.8674 38.9109 67.8674 39.1162C67.662 39.2189 67.5594 39.3215 67.4567 39.4242Z" fill="white"/>
<path d="M75.0544 19.6096C68.8943 13.4496 60.3729 9.65088 50.9275 9.65088C41.4821 9.65088 32.9606 13.4496 26.8006 19.6096C20.6405 25.7697 16.8418 34.2911 16.8418 43.7366C16.8418 53.182 20.6405 61.7034 26.8006 67.8635C32.9606 74.0235 41.4821 77.8223 50.9275 77.8223C60.3729 77.8223 68.8943 74.0235 75.0544 67.8635C81.2145 61.7034 85.0132 53.182 85.0132 43.7366C85.0132 34.2911 81.2145 25.7697 75.0544 19.6096ZM72.077 64.7834C66.6356 70.2248 59.1409 73.5102 50.9275 73.5102C42.7141 73.5102 35.2193 70.1222 29.8806 64.7834C24.4392 59.3421 21.1538 51.95 21.1538 43.7366C21.1538 35.5231 24.5419 28.0284 29.8806 22.6897C35.2193 17.2483 42.7141 13.8603 50.9275 13.8603C59.1409 13.8603 66.6356 17.2483 71.9744 22.587C77.4158 28.0284 80.7011 35.4205 80.7011 43.6339C80.7011 51.8473 77.4158 59.4447 72.077 64.7834Z" fill="white"/>
</svg>
