<svg width="29" height="21" viewBox="0 0 29 21" fill="none" xmlns="http://www.w3.org/2000/svg">
<path d="M8.97834 18.8718L8.27123 18.1647L1.72104 11.6145L1.72101 11.6144C1.55619 11.4496 1.28883 11.4494 1.1237 11.6145L8.97834 18.8718ZM8.97834 18.8718L9.68545 18.1647M8.97834 18.8718L9.68545 18.1647M9.68545 18.1647L26.7262 1.12377C26.8912 0.958705 27.1586 0.958808 27.3235 1.12369L28.0306 0.416624L27.3235 1.1237C27.4885 1.28874 27.4884 1.55616 27.3236 1.72101L27.3235 1.72104L9.277 19.7676C9.11223 19.9323 8.84428 19.9322 8.67979 19.7677L8.67968 19.7676M9.68545 18.1647L8.67968 19.7676M8.67968 19.7676L1.12373 12.2117C1.12373 12.2117 1.12373 12.2117 1.12373 12.2117C0.958749 12.0467 0.958789 11.7794 1.12366 11.6145L8.67968 19.7676Z" stroke="url(#paint0_linear)" stroke-width="2"/>
<defs>
<linearGradient id="paint0_linear" x1="7.04169e-08" y1="10.2743" x2="28.4472" y2="10.2743" gradientUnits="userSpaceOnUse">
<stop stop-color="#97CC35"/>
<stop offset="1" stop-color="#66B161"/>
</linearGradient>
</defs>
</svg>
