<svg width="14" height="22" viewBox="0 0 14 22" fill="none" xmlns="http://www.w3.org/2000/svg">
<path fill-rule="evenodd" clip-rule="evenodd" d="M12.4739 1H9.43537C9.43537 1 9.39 1 9.25395 1C8.61903 1 5.4898 1.1814 4.62812 4.53741C4.62812 4.58276 4.31063 5.39908 4.31063 7.39455H1.45351C1.18141 7.39455 1 7.62131 1 7.84807V10.4785C1 10.7506 1.22676 10.932 1.45351 10.932H4.58278V20.4558C4.58278 20.7279 4.80954 20.9093 5.03629 20.9093H8.61902C8.89113 20.9093 9.07253 20.6826 9.07253 20.4558V10.932H12.2471C12.5192 10.932 12.7007 10.7052 12.7007 10.4785V7.80272C12.7007 7.53062 12.4739 7.34921 12.2471 7.34921H9.11793V6.21542C9.11793 5.44445 9.6168 4.62812 10.932 4.62812H12.4286C12.7007 4.62812 12.8821 4.40136 12.8821 4.1746V1.45351C12.9274 1.22676 12.746 1 12.4739 1Z" stroke="white" stroke-miterlimit="10"/>
</svg>
