<svg width="22" height="22" viewBox="0 0 22 22" fill="none" xmlns="http://www.w3.org/2000/svg">
<path d="M21.3525 16.1928C21.3525 18.8231 19.221 21 16.5453 21H6.15979C3.5294 21 1.35254 18.8685 1.35254 16.1928V5.80725C1.35254 3.17686 3.48405 1 6.15979 1H16.5453C19.1757 1 21.3525 3.13151 21.3525 5.80725V16.1928Z" stroke="white" stroke-miterlimit="10"/>
<path d="M11.3743 5.94336C8.56253 5.94336 6.29492 8.21094 6.29492 11.0227C6.29492 13.8345 8.56253 16.1021 11.3743 16.1021C14.1861 16.1021 16.4537 13.8345 16.4537 11.0227C16.4537 8.21094 14.1861 5.94336 11.3743 5.94336Z" stroke="white" stroke-miterlimit="10"/>
<path d="M17.7234 3.49438C17.1791 3.49438 16.7256 3.94788 16.7256 4.4921C16.7256 5.03631 17.1791 5.48983 17.7234 5.48983C18.2676 5.48983 18.7211 5.03631 18.7211 4.4921C18.7211 3.94788 18.2676 3.49438 17.7234 3.49438Z" stroke="white" stroke-miterlimit="10"/>
</svg>
