<svg width="37" height="22" viewBox="0 0 37 22" fill="none" xmlns="http://www.w3.org/2000/svg">
<path fill-rule="evenodd" clip-rule="evenodd" d="M34.3311 17.0091C33.288 15.7393 32.0636 14.6962 30.8844 13.5624C29.8413 12.5193 29.7506 11.9297 30.6123 10.7506C31.5194 9.48073 32.5171 8.21091 33.4241 6.94106C34.2858 5.76192 35.1928 4.53742 35.6463 3.13153C35.9184 2.2245 35.6917 1.81633 34.7393 1.68027C34.5579 1.63492 34.4219 1.63493 34.2404 1.63493H28.7075C28.0273 1.63493 27.6644 1.90704 27.3923 2.54196C27.0749 3.35829 26.7121 4.17463 26.3493 4.99095C25.4876 6.75966 24.4898 8.52837 23.0839 9.97962C22.7665 10.2971 22.449 10.7052 21.9501 10.5238C21.3152 10.2971 21.1338 9.25398 21.1338 8.89117V2.49662C20.9978 1.58959 20.8164 1.18141 19.9093 1H14.1497C13.3787 1 13.0159 1.31747 12.5624 1.77098C12.3356 2.04309 12.245 2.2245 12.7438 2.3152C13.6962 2.49661 14.2404 3.13154 14.3765 4.08392C14.6032 5.62588 14.6032 7.1678 14.4671 8.70976C14.4218 9.16327 14.3311 9.6168 14.1497 10.025C13.8776 10.7052 13.4241 10.8413 12.8345 10.4331C12.2903 10.0703 11.9275 9.57144 11.5647 9.02722C10.2041 7.07711 9.07036 4.99094 8.16333 2.76872C7.89122 2.1338 7.43766 1.72564 6.75739 1.72564C5.07938 1.68029 3.44673 1.68029 1.76872 1.72564C0.77099 1.72564 0.45353 2.2245 0.861693 3.13153C2.67575 7.16781 4.67124 11.0681 7.34698 14.6508C8.70753 16.4649 10.2495 18.0975 12.245 19.2313C14.5125 20.5465 16.9615 20.9093 19.5465 20.8186C20.771 20.7733 21.1338 20.4558 21.1792 19.2313C21.2245 18.415 21.3152 17.5986 21.7234 16.873C22.1315 16.1474 22.7212 16.0114 23.4014 16.4649C23.7642 16.6916 24.0363 16.9637 24.3085 17.2812C24.9887 18.0068 25.6236 18.7778 26.3493 19.5034C27.211 20.4105 28.2994 20.9547 29.6146 20.8186H34.694C35.5103 20.7733 35.9638 19.7755 35.4649 18.8232C35.2382 18.1429 34.7846 17.5533 34.3311 17.0091Z" stroke="white" stroke-miterlimit="10"/>
</svg>
